<mxfile host="app.diagrams.net" agent="Mozilla/5.0 (Macintosh; Intel Mac OS X 10_15_7) AppleWebKit/605.1.15 (KHTML, like Gecko) Version/17.4.1 Safari/605.1.15" version="25.0.3">
  <diagram name="Page-1" id="S1GeESIREZ6cOcl8QgzU">
    <mxGraphModel dx="1306" dy="867" grid="1" gridSize="10" guides="1" tooltips="1" connect="1" arrows="1" fold="1" page="1" pageScale="1" pageWidth="827" pageHeight="1169" math="0" shadow="0">
      <root>
        <mxCell id="0" />
        <mxCell id="1" parent="0" />
        <mxCell id="9qK-Ncw-9NurQET51GB9-5" value="Utilisateur&amp;nbsp;" style="swimlane;whiteSpace=wrap;html=1;" vertex="1" parent="1">
          <mxGeometry x="50" y="300" width="160" height="120" as="geometry" />
        </mxCell>
        <mxCell id="9qK-Ncw-9NurQET51GB9-6" value="Annonce" style="swimlane;whiteSpace=wrap;html=1;" vertex="1" parent="1">
          <mxGeometry x="310" y="80" width="160" height="120" as="geometry" />
        </mxCell>
        <mxCell id="9qK-Ncw-9NurQET51GB9-7" value="CatÃ©gorie" style="swimlane;whiteSpace=wrap;html=1;" vertex="1" parent="1">
          <mxGeometry x="590" y="330" width="160" height="120" as="geometry" />
        </mxCell>
        <mxCell id="9qK-Ncw-9NurQET51GB9-9" value="" style="endArrow=none;html=1;rounded=0;entryX=0;entryY=1;entryDx=0;entryDy=0;exitX=1;exitY=0;exitDx=0;exitDy=0;" edge="1" parent="1" source="9qK-Ncw-9NurQET51GB9-5" target="9qK-Ncw-9NurQET51GB9-6">
          <mxGeometry width="50" height="50" relative="1" as="geometry">
            <mxPoint x="210" y="260" as="sourcePoint" />
            <mxPoint x="310" y="150" as="targetPoint" />
          </mxGeometry>
        </mxCell>
        <mxCell id="9qK-Ncw-9NurQET51GB9-10" value="" style="endArrow=none;html=1;rounded=0;exitX=0.169;exitY=-0.008;exitDx=0;exitDy=0;exitPerimeter=0;entryX=1;entryY=1;entryDx=0;entryDy=0;" edge="1" parent="1" source="9qK-Ncw-9NurQET51GB9-7" target="9qK-Ncw-9NurQET51GB9-6">
          <mxGeometry width="50" height="50" relative="1" as="geometry">
            <mxPoint x="550" y="250" as="sourcePoint" />
            <mxPoint x="440" y="120" as="targetPoint" />
          </mxGeometry>
        </mxCell>
        <mxCell id="9qK-Ncw-9NurQET51GB9-11" value="Creer" style="text;html=1;align=center;verticalAlign=middle;whiteSpace=wrap;rounded=0;" vertex="1" parent="1">
          <mxGeometry x="210" y="230" width="60" height="30" as="geometry" />
        </mxCell>
        <mxCell id="9qK-Ncw-9NurQET51GB9-12" value="Associer" style="text;html=1;align=center;verticalAlign=middle;whiteSpace=wrap;rounded=0;" vertex="1" parent="1">
          <mxGeometry x="560" y="230" width="60" height="30" as="geometry" />
        </mxCell>
        <mxCell id="9qK-Ncw-9NurQET51GB9-13" value="1.1" style="text;html=1;align=center;verticalAlign=middle;whiteSpace=wrap;rounded=0;" vertex="1" parent="1">
          <mxGeometry x="240" y="190" width="60" height="30" as="geometry" />
        </mxCell>
        <mxCell id="9qK-Ncw-9NurQET51GB9-14" value="0, n" style="text;html=1;align=center;verticalAlign=middle;whiteSpace=wrap;rounded=0;" vertex="1" parent="1">
          <mxGeometry x="160" y="260" width="60" height="30" as="geometry" />
        </mxCell>
        <mxCell id="9qK-Ncw-9NurQET51GB9-15" value="1.1" style="text;html=1;align=center;verticalAlign=middle;whiteSpace=wrap;rounded=0;" vertex="1" parent="1">
          <mxGeometry x="480" y="180" width="60" height="30" as="geometry" />
        </mxCell>
        <mxCell id="9qK-Ncw-9NurQET51GB9-16" value="0,n" style="text;html=1;align=center;verticalAlign=middle;whiteSpace=wrap;rounded=0;" vertex="1" parent="1">
          <mxGeometry x="600" y="270" width="60" height="30" as="geometry" />
        </mxCell>
      </root>
    </mxGraphModel>
  </diagram>
</mxfile>
